<svg class="svg-icon" style="width: 1em; height: 1em;vertical-align: middle;fill: currentColor;overflow: hidden;" viewBox="0 0 1024 1024" version="1.1" xmlns="http://www.w3.org/2000/svg"><path d="M799.563175 745.291853l133.394025-77.114113-133.886327-77.311034-133.315256 77.055037 133.807558 77.37011z m-20.775125 33.062971l-141.566231-77.547338v191.288686l141.566231 77.547338v-191.288686z m215.332693-93.005606a27.568886 27.568886 0 0 1 0.315073 3.859644v198.200599a27.273505 27.273505 0 0 1-17.900084 25.678448l-160.372149 104.01347a27.214429 27.214429 0 0 1-31.723912 3.268882l-168.839735-108.956177a27.253813 27.253813 0 0 1-13.095221-28.927638v-193.277584c0-7.128526 2.697812-13.528446 7.128526-18.451462 2.166127-2.737197 4.824555-5.041168 7.857133-6.774069l161.356752-104.643615a27.293197 27.293197 0 0 1 21.267426-7.994977c6.951298 0.059076 13.725367 2.776581 18.825611 7.758672l161.71121 104.820844c7.994977 4.607942 12.79984 12.79984 13.528446 21.424963h-0.059076z m-178.134389 94.167438v188.768102l138.78965-77.291342v-188.84687l-138.78965 77.311034v0.059076z m100.311362-249.459036v-57.737124H631.255125l-97.515089 166.063155c-5.671314 9.215885-15.753649 14.788738-26.584283 14.650894a30.759 30.759 0 0 1-29.813781-18.707459l-124.65075-295.203694-80.560224 123.843375c-5.238088 10.298948-15.812725 9.393113-27.352273 9.412805H68.889231v257.650933c0 33.988498 49.683071 78.787938 83.651878 78.787939h385.314568v38.163215H152.541109C84.603496 846.981659 29.544492 798.027194 29.544492 730.030505V184.639169a123.055693 123.055693 0 0 1 122.996617-123.114769h61.301387V98.466708H152.541109C118.572302 98.466708 68.889231 150.630979 68.889231 184.639169V434.216357h159.092165l101.650422-152.652861c2.67812-4.115641 6.30146-7.54206 10.574637-9.964183 2.284279-1.516289 4.765479-2.717504 7.384523-3.505187l2.835657-0.866451a30.719616 30.719616 0 0 1 37.316457 17.427475l123.60707 292.545266 74.278456-120.948642c2.264587-5.139628 5.868234-9.570342 10.456485-12.79984a30.798384 30.798384 0 0 1 23.177556-5.53347h297.035057V184.639169c0-34.00819-53.365487-86.172461-87.334293-86.172461h-61.616461V61.5244h61.616461a123.036001 123.036001 0 0 1 122.976924 123.114769v381.356464l-35.642631-35.878936v-0.059077zM582.871729 61.5244V98.466708h-184.613076V61.5244h184.613076zM306.257341-0.013292c16.994249 0 18.037928 13.784443 18.037928 30.778692v123.095077c0 16.994249-1.063371 11.066939-18.037928 11.066938s-20.893277 5.927311-20.893277-11.066938V30.7654c0-16.994249 3.91872-30.778692 20.893277-30.778692z m368.970157 0c16.974557 0 22.54741 13.784443 22.547411 30.778692v123.095077c0 16.994249-5.572853 11.086631-22.547411 11.08663-16.974557 0-15.970262 5.907618-15.970262-11.08663V30.7654c0-16.994249-1.004295-30.778692 15.970262-30.778692z"  /></svg>